<svg xmlns="http://www.w3.org/2000/svg" xmlns:xlink="http://www.w3.org/1999/xlink" viewBox="0 0 320 180"><defs><style>.cls-1,.cls-13,.cls-14,.cls-18,.cls-19,.cls-20,.cls-21,.cls-24,.cls-28,.cls-30,.cls-32{fill:none;}.cls-2{isolation:isolate;}.cls-3{fill:url(#linear-gradient);}.cls-4{fill:url(#linear-gradient-2);}.cls-5{fill:url(#linear-gradient-3);}.cls-6{fill:url(#linear-gradient-4);}.cls-7{fill:#dadce0;}.cls-8{fill:#edf3fd;}.cls-9{clip-path:url(#clip-path);}.cls-10{fill:#34a853;}.cls-11{fill:#f2bf42;}.cls-12{fill:#e9eaed;}.cls-13{stroke:#4285f4;}.cls-13,.cls-14,.cls-18,.cls-19,.cls-20,.cls-21,.cls-28{stroke-linecap:round;}.cls-13,.cls-14,.cls-20,.cls-28{stroke-linejoin:round;}.cls-13,.cls-14,.cls-18,.cls-19,.cls-20,.cls-21{stroke-width:2px;}.cls-14,.cls-24{stroke:silver;}.cls-15{fill:url(#linear-gradient-5);}.cls-16{fill:#9ba0a6;}.cls-17{fill:#f8f9fa;}.cls-18{stroke:#f8f9fa;}.cls-18,.cls-19,.cls-21,.cls-24,.cls-30{stroke-miterlimit:10;}.cls-19{stroke:#34a853;}.cls-20{stroke:#fff;}.cls-21{stroke:#dbdce0;}.cls-22{fill:url(#linear-gradient-6);}.cls-23,.cls-27{mix-blend-mode:multiply;}.cls-23{fill:url(#linear-gradient-7);}.cls-25{fill:#fbbc04;}.cls-26{fill:#4285f4;}.cls-27{fill:url(#linear-gradient-8);}.cls-28{stroke:#fbbc04;stroke-width:6px;}.cls-29{fill:url(#linear-gradient-9);}.cls-30{stroke:#f9ab00;}.cls-31{fill:url(#linear-gradient-10);}.cls-32{opacity:0.1;}</style><linearGradient id="linear-gradient" x1="128.16" y1="54.11" x2="77.44" y2="54.11" gradientUnits="userSpaceOnUse"><stop offset="0" stop-color="#9aa0a6"/><stop offset="1" stop-color="#9aa0a6" stop-opacity="0"/></linearGradient><linearGradient id="linear-gradient-2" x1="213.79" y1="108.27" x2="163.07" y2="108.27" xlink:href="#linear-gradient"/><linearGradient id="linear-gradient-3" x1="60.52" y1="108.27" x2="9.8" y2="108.27" xlink:href="#linear-gradient"/><linearGradient id="linear-gradient-4" x1="161.15" y1="156.93" x2="110.43" y2="156.93" xlink:href="#linear-gradient"/><clipPath id="clip-path"><rect class="cls-1" x="112.74" y="23.58" width="56.45" height="30.09" rx="0.88"/></clipPath><linearGradient id="linear-gradient-5" x1="99.91" y1="43.31" x2="45.41" y2="91.95" gradientUnits="userSpaceOnUse"><stop offset="0" stop-color="#fff"/><stop offset="1" stop-color="#fff" stop-opacity="0"/></linearGradient><linearGradient id="linear-gradient-6" x1="300.39" y1="-8.31" x2="250" y2="72.55" xlink:href="#linear-gradient-5"/><linearGradient id="linear-gradient-7" x1="210.33" y1="121.93" x2="210.33" y2="118.27" gradientTransform="translate(-31.06 121.04) rotate(-30)" gradientUnits="userSpaceOnUse"><stop offset="0" stop-color="#34a853" stop-opacity="0.4"/><stop offset="1" stop-color="#34a853" stop-opacity="0"/></linearGradient><linearGradient id="linear-gradient-8" x1="108.73" y1="122.21" x2="108.73" y2="118.11" gradientUnits="userSpaceOnUse"><stop offset="0" stop-color="#4285f4" stop-opacity="0.4"/><stop offset="1" stop-color="#4285f4" stop-opacity="0"/></linearGradient><linearGradient id="linear-gradient-9" x1="146.08" y1="221.94" x2="163.37" y2="99.9" gradientUnits="userSpaceOnUse"><stop offset="0.41" stop-color="#f49102"/><stop offset="1" stop-color="#fab704"/></linearGradient><linearGradient id="linear-gradient-10" x1="180.51" y1="0.92" x2="140.58" y2="38.99" gradientUnits="userSpaceOnUse"><stop offset="0" stop-color="#fff"/><stop offset="0.78" stop-color="#fff" stop-opacity="0"/></linearGradient></defs><title>11. In case of disagreements</title><g class="cls-2"><g data-name="Layer 2"><g><rect class="cls-3" x="67.64" y="51.04" width="53.56" height="6.14"/><rect class="cls-4" x="153.28" y="105.2" width="53.56" height="6.14"/><rect class="cls-5" y="105.2" width="53.56" height="6.14"/><rect class="cls-6" x="100.63" y="153.86" width="53.56" height="6.14"/><rect class="cls-7" x="109.21" y="20.05" width="63.5" height="37.15" rx="1.76"/><rect class="cls-8" x="112.74" y="23.58" width="56.45" height="30.09" rx="0.88"/><g class="cls-9"><path class="cls-10" d="M111.86,45.12s13.87-12,23-11S141.75,46.72,149,46.72,158,40.4,163,40.4s7,4.72,7,4.72V55.51H112.25Z"/></g><circle class="cls-11" cx="151.51" cy="33.94" r="3.22"/><rect class="cls-12" x="27.44" y="56.66" width="63.5" height="45.96" rx="1.76" transform="translate(-20.45 138.84) rotate(-90)"/><rect class="cls-12" x="36.21" y="47.89" width="45.96" height="63.5" rx="1.76"/><line class="cls-13" x1="44.57" y1="58.62" x2="51.08" y2="58.62"/><line class="cls-14" x1="44.57" y1="65.68" x2="73.82" y2="65.68"/><line class="cls-14" x1="44.57" y1="72.73" x2="73.82" y2="72.73"/><line class="cls-14" x1="44.57" y1="79.79" x2="60.26" y2="79.79"/><line class="cls-13" x1="44.57" y1="93.89" x2="60.26" y2="93.89"/><line class="cls-14" x1="44.57" y1="100.95" x2="73.82" y2="100.95"/><rect class="cls-15" x="36.21" y="47.89" width="45.96" height="63.5" rx="1.76"/><rect class="cls-12" x="197.89" y="42.97" width="102.14" height="68.37"/><path class="cls-7" d="M199.32,36.06h99.3A1.42,1.42,0,0,1,300,37.48v5.68a0,0,0,0,1,0,0H197.89a0,0,0,0,1,0,0V37.48A1.42,1.42,0,0,1,199.32,36.06Z"/><circle class="cls-16" cx="201.62" cy="39.61" r="0.99"/><rect class="cls-17" x="197.89" y="43.16" width="31.5" height="68.17"/><line class="cls-18" x1="238.21" y1="63.64" x2="291.54" y2="63.64"/><line class="cls-18" x1="238.21" y1="79.53" x2="291.54" y2="79.53"/><line class="cls-18" x1="238.21" y1="87.19" x2="260.03" y2="87.19"/><rect class="cls-18" x="238.21" y="98.93" width="13.09" height="3.97"/><rect class="cls-18" x="254.89" y="98.93" width="13.09" height="3.97"/><rect class="cls-17" x="246.16" y="51.73" width="21.82" height="4.76" rx="2.38"/><rect class="cls-10" x="204.37" y="51.73" width="19.17" height="4.76" rx="2.38"/><line class="cls-19" x1="238.21" y1="71.58" x2="291.54" y2="71.58"/><line class="cls-20" x1="205.59" y1="63.64" x2="222.49" y2="63.64"/><line class="cls-21" x1="205.59" y1="79.53" x2="222.44" y2="79.53"/><line class="cls-21" x1="205.59" y1="87.19" x2="213.64" y2="87.19"/><line class="cls-21" x1="205.59" y1="71.58" x2="222.49" y2="71.58"/><circle class="cls-10" cx="240.59" cy="54.11" r="2.38"/><path class="cls-22" d="M298.61,36.06H199.32a1.43,1.43,0,0,0-1.43,1.42v73.86H300V37.48A1.43,1.43,0,0,0,298.61,36.06Z"/><rect class="cls-10" x="202.58" y="110.73" width="15.51" height="15.51" rx="2.99" transform="translate(87.42 -89.29) rotate(30)"/><rect class="cls-23" x="202.58" y="110.73" width="15.51" height="15.51" rx="2.99" transform="translate(87.42 -89.29) rotate(30)"/><polyline class="cls-24" points="195.27 122.84 210.33 79.87 225.39 122.84"/><path class="cls-25" d="M146.7,153.86h26.6a1.32,1.32,0,0,1,1.32,1.32V160a0,0,0,0,1,0,0H145.38a0,0,0,0,1,0,0v-4.82A1.32,1.32,0,0,1,146.7,153.86Z"/><path class="cls-25" d="M153.3,147.45h13.4a1.32,1.32,0,0,1,1.32,1.32v5.09a0,0,0,0,1,0,0H152a0,0,0,0,1,0,0v-5.09A1.32,1.32,0,0,1,153.3,147.45Z"/><path class="cls-26" d="M101.78,113l12.1-3.62a3.1,3.1,0,0,1,3.89,3.81l-3.38,12.17a3.11,3.11,0,0,1-5.18,1.39l-8.71-8.55A3.11,3.11,0,0,1,101.78,113Z"/><path class="cls-27" d="M101.78,113l12.1-3.62a3.1,3.1,0,0,1,3.89,3.81l-3.38,12.17a3.11,3.11,0,0,1-5.18,1.39l-8.71-8.55A3.11,3.11,0,0,1,101.78,113Z"/><polyline class="cls-24" points="94.61 122.86 109.67 79.87 124.73 122.86"/><path class="cls-25" d="M91.32,121.59H128a0,0,0,0,1,0,0v4.09A1.32,1.32,0,0,1,126.7,127H92.64a1.32,1.32,0,0,1-1.32-1.32v-4.09A0,0,0,0,1,91.32,121.59Z"/><path class="cls-25" d="M192,121.59h36.7a0,0,0,0,1,0,0v4.09a1.32,1.32,0,0,1-1.32,1.32H193.3a1.32,1.32,0,0,1-1.32-1.32v-4.09A0,0,0,0,1,192,121.59Z"/><line class="cls-28" x1="160" y1="154.55" x2="160" y2="73.27"/><path class="cls-25" d="M124.64,126.83a15,15,0,0,1-29.94,0"/><path class="cls-25" d="M225.3,126.83a15,15,0,1,1-29.94,0"/><path class="cls-28" d="M213.67,79.21c-28.09,0-28.22-6.48-53.67-6.48-23.9,0-23.78,6.48-53.67,6.48"/><path class="cls-25" d="M153.28,70.09a6.85,6.85,0,0,1,13.7,0"/><path class="cls-29" d="M225.48,121.59l-13.81-39.4,2,0a3,3,0,0,0,0-6,101.25,101.25,0,0,1-27.62-3.28,94.79,94.79,0,0,0-19.08-3,6.85,6.85,0,0,0-13.69,0,89,89,0,0,0-17.46,2.86c-6.92,1.69-14.07,3.43-29.49,3.43a3,3,0,0,0,0,6l2,0-13.81,39.4h-3.2v4.09A1.32,1.32,0,0,0,92.64,127H94.7v1h.06a15,15,0,0,0,29.82,0h.06v-1h2.06a1.32,1.32,0,0,0,1.32-1.32v-4.09h-3.2L111,82.14a108.38,108.38,0,0,0,26.24-3.53A82.57,82.57,0,0,1,157,75.77v.53h0v1h0v69.16h0v1h-3.7a1.32,1.32,0,0,0-1.32,1.32v5.09H146.7a1.32,1.32,0,0,0-1.32,1.32V160h29.24v-4.82a1.32,1.32,0,0,0-1.32-1.32H168v-5.09a1.32,1.32,0,0,0-1.32-1.32H163V75.77a88.45,88.45,0,0,1,21.65,3A103.27,103.27,0,0,0,209,82.14l-13.82,39.45H192v4.09A1.32,1.32,0,0,0,193.3,127h2.06v1h.06a15,15,0,0,0,29.82,0h.06v-1h2.06a1.32,1.32,0,0,0,1.32-1.32v-4.09Zm-101.72,0H95.58l13.81-39.41H110Zm86.29-39.43.56,0,13.81,39.41H196.24Z"/><line class="cls-30" x1="151.98" y1="153.36" x2="168.02" y2="153.36"/><line class="cls-30" x1="157" y1="146.96" x2="162.99" y2="146.96"/><line class="cls-30" x1="157" y1="76.28" x2="162.99" y2="76.28"/><line class="cls-30" x1="195.36" y1="127.48" x2="225.3" y2="127.48"/><line class="cls-30" x1="94.7" y1="127.48" x2="124.64" y2="127.48"/><rect class="cls-31" x="109.21" y="20.05" width="63.5" height="37.15" rx="1.76"/><rect class="cls-32" width="20" height="180"/><rect class="cls-32" x="300" width="20" height="180"/><rect class="cls-32" x="150" y="-150" width="20" height="320" transform="translate(170 -150) rotate(90)"/><rect class="cls-32" x="150" y="10" width="20" height="320" transform="translate(330 10) rotate(90)"/></g></g></g></svg>
