<svg xmlns="http://www.w3.org/2000/svg" xmlns:xlink="http://www.w3.org/1999/xlink" viewBox="0 0 320 180"><defs><style>.cls-1{fill:#fbbc04;}.cls-2{fill:url(#linear-gradient);}.cls-3{fill:url(#linear-gradient-2);}.cls-4{fill:url(#linear-gradient-3);}.cls-5{fill:#5f6368;}.cls-6{fill:#f8f9fa;}.cls-10,.cls-11,.cls-12,.cls-17,.cls-18,.cls-22,.cls-7,.cls-9{fill:none;}.cls-7{stroke:#3c4043;}.cls-10,.cls-12,.cls-17,.cls-18,.cls-7,.cls-9{stroke-miterlimit:10;}.cls-8{fill:#e9eaed;}.cls-17,.cls-9{stroke:#bec1c6;}.cls-10,.cls-11,.cls-18,.cls-22,.cls-9{stroke-linecap:round;stroke-width:2px;}.cls-10,.cls-22{stroke:#fff;}.cls-11,.cls-12{stroke:#e9eaed;}.cls-11,.cls-22{stroke-linejoin:round;}.cls-13{fill:#bec1c6;}.cls-14{fill:#4285f4;}.cls-15{fill:url(#linear-gradient-4);}.cls-16{fill:#e8eaed;}.cls-18{stroke:#fbbc04;}.cls-19{fill:url(#linear-gradient-5);}.cls-20{fill:#185abc;}.cls-21{fill:#fff;}.cls-23{fill:#e37400;}.cls-24{fill:url(#linear-gradient-6);}</style><linearGradient id="linear-gradient" x1="202.52" y1="983.23" x2="202.52" y2="887.78" gradientTransform="translate(0 -850)" gradientUnits="userSpaceOnUse"><stop offset="0.41" stop-color="#f49102"/><stop offset="1" stop-color="#fab704"/></linearGradient><linearGradient id="linear-gradient-2" x1="235.23" y1="1006.36" x2="184.88" y2="1006.36" gradientTransform="translate(0 -850)" gradientUnits="userSpaceOnUse"><stop offset="0" stop-color="#9aa0a6"/><stop offset="1" stop-color="#9aa0a6" stop-opacity="0"/></linearGradient><linearGradient id="linear-gradient-3" x1="104.99" y1="1006.36" x2="54.62" y2="1006.36" xlink:href="#linear-gradient-2"/><linearGradient id="linear-gradient-4" x1="241.9" y1="835.23" x2="155.79" y2="953.33" gradientTransform="translate(0 -850)" gradientUnits="userSpaceOnUse"><stop offset="0" stop-color="#fff"/><stop offset="1" stop-color="#fff" stop-opacity="0"/></linearGradient><linearGradient id="linear-gradient-5" x1="255.57" y1="855.68" x2="228.81" y2="968.55" xlink:href="#linear-gradient-4"/><linearGradient id="linear-gradient-6" x1="147.55" y1="849.65" x2="117.88" y2="902.01" gradientTransform="translate(0 -850)" gradientUnits="userSpaceOnUse"><stop offset="0" stop-color="#bdc1c6"/><stop offset="1" stop-color="#bdc1c6" stop-opacity="0"/></linearGradient></defs><title>6. Respect others</title><g><g data-name="Layer 2"><g data-name="Content"><polyline class="cls-1" points="211.46 63.48 225.75 76.68 225.75 64.07"/><path class="cls-1" d="M174.12,20.58H231a22.37,22.37,0,0,1,22.34,22.34h0A22.37,22.37,0,0,1,231,65.26H174.12a22.38,22.38,0,0,1-22.34-22.34h0A22.38,22.38,0,0,1,174.12,20.58Z"/><path class="cls-2" d="M231,20.58H174.12a22.38,22.38,0,0,0-22.34,22.34h0A22.29,22.29,0,0,0,174,65.26h39.32l12.31,11.42V65.26h5.27a22.38,22.38,0,0,0,22.34-22.34h0A22.24,22.24,0,0,0,231,20.58Z"/><rect class="cls-3" x="175.12" y="153.33" width="53.22" height="6.06"/><rect class="cls-4" x="44.85" y="153.33" width="53.22" height="6.06"/><path class="cls-5" d="M94.3,85.32h95.31a7.86,7.86,0,0,1,7.85,7.84v58.28a7.87,7.87,0,0,1-7.85,7.85H94.3a7.87,7.87,0,0,1-7.85-7.85V93.26A7.88,7.88,0,0,1,94.3,85.32Z"/><rect class="cls-6" x="95.89" y="90.08" width="90.55" height="64.64"/><circle class="cls-7" cx="191.5" cy="123.94" r="2.38"/><rect class="cls-8" x="95.89" y="90.08" width="30.18" height="64.64"/><line class="cls-9" x1="102.24" y1="101.1" x2="122.2" y2="101.1"/><line class="cls-10" x1="102.24" y1="119.97" x2="122.2" y2="119.97"/><line class="cls-10" x1="102.24" y1="127.91" x2="122.2" y2="127.91"/><line class="cls-10" x1="102.24" y1="135.76" x2="122.2" y2="135.76"/><line class="cls-11" x1="135.4" y1="119.97" x2="180.18" y2="119.97"/><line class="cls-11" x1="135.4" y1="127.91" x2="180.18" y2="127.91"/><line class="cls-11" x1="135.4" y1="135.76" x2="156.15" y2="135.76"/><line class="cls-10" x1="102.24" y1="143.6" x2="122.2" y2="143.6"/><rect class="cls-12" x="134.51" y="143.6" width="13.01" height="3.97"/><rect class="cls-12" x="134.51" y="95.45" width="46.17" height="5.66"/><rect class="cls-12" x="151.09" y="143.6" width="13.01" height="3.97"/><rect class="cls-12" x="167.67" y="143.6" width="13.01" height="3.97"/><path class="cls-13" d="M103.73,108.15h17a2.42,2.42,0,0,1,2.38,2.39h0a2.41,2.41,0,0,1-2.38,2.38h-17a2.41,2.41,0,0,1-2.38-2.38h0A2.42,2.42,0,0,1,103.73,108.15Z"/><path class="cls-14" d="M144.74,108.15h17a2.43,2.43,0,0,1,2.39,2.39h0a2.42,2.42,0,0,1-2.39,2.38h-17a2.41,2.41,0,0,1-2.39-2.38h0A2.42,2.42,0,0,1,144.74,108.15Z"/><circle class="cls-14" cx="136.89" cy="110.54" r="2.38"/><line class="cls-7" x1="91.22" y1="127.52" x2="91.22" y2="117.19"/><path class="cls-15" d="M94.3,85.32h95.31a7.86,7.86,0,0,1,7.85,7.84v58.28a7.87,7.87,0,0,1-7.85,7.85H94.3a7.87,7.87,0,0,1-7.85-7.85V93.26A7.88,7.88,0,0,1,94.3,85.32Z"/><path class="cls-14" d="M86.26,35.28h56.89a22.38,22.38,0,0,1,22.34,22.34h0A22.38,22.38,0,0,1,143.15,80H86.26A22.37,22.37,0,0,1,63.92,57.62h0A22.43,22.43,0,0,1,86.26,35.28Z"/><rect class="cls-16" x="209.47" y="94.25" width="36.93" height="55.5" transform="translate(-30.52 115.8) rotate(-26.78)"/><path class="cls-5" d="M258,140.62a3.86,3.86,0,0,1-1.79,5.26L230.32,159a3.86,3.86,0,0,1-5.26-1.79L224,155.12l33-16.68Z"/><path class="cls-5" d="M197.85,103.49a3.86,3.86,0,0,1,1.79-5.26l25.91-13.11a3.88,3.88,0,0,1,5.27,1.79L231.91,89l-33,16.68Z"/><line class="cls-17" x1="211.46" y1="130.3" x2="244.42" y2="113.71"/><line class="cls-9" x1="219.99" y1="135.26" x2="232.01" y2="129.2"/><line class="cls-9" x1="222.48" y1="140.22" x2="245.81" y2="128.41"/><line class="cls-9" x1="224.96" y1="145.09" x2="243.52" y2="135.76"/><line class="cls-18" x1="207.88" y1="111.33" x2="214.93" y2="107.76"/><line class="cls-9" x1="210.36" y1="116.3" x2="233.79" y2="104.48"/><line class="cls-10" x1="212.85" y1="121.16" x2="228.04" y2="113.52"/><line class="cls-7" x1="211.55" y1="95.74" x2="216.52" y2="93.16"/><path class="cls-19" d="M258,140.62l-1.09-2.08L231.91,89l-1.09-2.08a4.09,4.09,0,0,0-5.27-1.79L199.64,98.23a4.07,4.07,0,0,0-1.79,5.26l1.1,2.08,25,49.55,1.09,2.08a4.07,4.07,0,0,0,5.26,1.79l25.91-13.11A3.89,3.89,0,0,0,258,140.62Z"/><path class="cls-20" d="M98.67,66.65c0-3.17-5.56-5.86-12-6-6.45.09-12,2.78-12,6V67a15.45,15.45,0,1,1,23.93,0l.1-.3Z"/><path class="cls-21" d="M74.74,66.65c0-3.17,5.56-5.86,12-6,6.46.09,12,2.78,12,6V67a15.58,15.58,0,0,1-21.85,2.28,15,15,0,0,1-2.18-2.18Z"/><circle class="cls-21" cx="86.65" cy="51.66" r="6.16"/><line class="cls-22" x1="111.47" y1="51.46" x2="137.09" y2="51.46"/><line class="cls-22" x1="111.47" y1="57.62" x2="137.09" y2="57.62"/><line class="cls-22" x1="111.47" y1="63.77" x2="125.18" y2="63.77"/><polyline class="cls-14" points="132.62 78.47 118.33 91.67 118.33 79.06"/><path class="cls-23" d="M218.6,51.86c0-3.18,5.56-5.86,12-6,6.35.1,12,2.78,12,6v.3a15.45,15.45,0,1,0-23.93,0v-.3Z"/><path class="cls-21" d="M242.53,51.86c0-3.18-5.56-5.86-12-6-6.46.1-12,2.78-12,6v.3a15.36,15.36,0,0,0,21.75,2.18,15,15,0,0,0,2.18-2.18v-.3Z"/><circle class="cls-21" cx="230.52" cy="36.97" r="6.16"/><line class="cls-22" x1="205.8" y1="36.67" x2="180.18" y2="36.67"/><line class="cls-22" x1="205.8" y1="42.82" x2="180.18" y2="42.82"/><line class="cls-22" x1="191.8" y1="48.98" x2="180.18" y2="48.98"/><path class="cls-20" d="M152.48,37.36a20,20,0,0,0-.7,5.46h0a22.33,22.33,0,0,0,13,20.36,21.47,21.47,0,0,0,.7-5.66h0A22.25,22.25,0,0,0,152.48,37.36Z"/><path class="cls-24" d="M143.15,35.28H86.26A22.37,22.37,0,0,0,63.92,57.62h0A22.37,22.37,0,0,0,86.26,80h32.06V91.67L131,80h12.12a22.38,22.38,0,0,0,22.34-22.34h0A22.38,22.38,0,0,0,143.15,35.28Z"/><path class="cls-1" d="M42.87,58.51A11.1,11.1,0,0,1,31.75,69.63,11.11,11.11,0,0,1,42.87,80.75,11.1,11.1,0,0,1,54,69.63,11,11,0,0,1,42.87,58.51Zm217.34,22A5.51,5.51,0,0,1,254.74,86a5.52,5.52,0,0,1,5.47,5.46A5.51,5.51,0,0,1,265.67,86,5.51,5.51,0,0,1,260.21,80.55Zm20.94-26.8a8.53,8.53,0,0,1-8.53,8.53,8.54,8.54,0,0,1,8.53,8.54,8.55,8.55,0,0,1,8.54-8.54A8.48,8.48,0,0,1,281.15,53.75Z"/></g></g></g></svg>
