<svg xmlns="http://www.w3.org/2000/svg" xmlns:xlink="http://www.w3.org/1999/xlink" width="360" height="204" viewBox="0 0 360 204"><defs><linearGradient id="linear-gradient" x1="25" y1="165" x2="50" y2="165" gradientUnits="userSpaceOnUse"><stop offset="0" stop-color="#9aa0a6" stop-opacity="0"/><stop offset="0.15" stop-color="#9aa0a6" stop-opacity="0.025"/><stop offset="0.306" stop-color="#9aa0a6" stop-opacity="0.1"/><stop offset="0.464" stop-color="#9aa0a6" stop-opacity="0.225"/><stop offset="0.624" stop-color="#9aa0a6" stop-opacity="0.4"/><stop offset="0.786" stop-color="#9aa0a6" stop-opacity="0.626"/><stop offset="0.946" stop-color="#9aa0a6" stop-opacity="0.898"/><stop offset="1" stop-color="#9aa0a6"/></linearGradient><linearGradient id="linear-gradient-2" x1="64" y1="139" x2="64" y2="146" gradientUnits="userSpaceOnUse"><stop offset="0" stop-color="#5f6368"/><stop offset="1" stop-color="#5f6368" stop-opacity="0"/></linearGradient><clipPath id="clip-path"><circle cx="64" cy="112" r="28" fill="none"/></clipPath><linearGradient id="linear-gradient-3" x1="44.201" y1="131.799" x2="67" y2="109" gradientUnits="userSpaceOnUse"><stop offset="0" stop-color="#9aa0a6"/><stop offset="0.054" stop-color="#9aa0a6" stop-opacity="0.898"/><stop offset="0.214" stop-color="#9aa0a6" stop-opacity="0.626"/><stop offset="0.376" stop-color="#9aa0a6" stop-opacity="0.4"/><stop offset="0.536" stop-color="#9aa0a6" stop-opacity="0.225"/><stop offset="0.694" stop-color="#9aa0a6" stop-opacity="0.1"/><stop offset="0.85" stop-color="#9aa0a6" stop-opacity="0.025"/><stop offset="1" stop-color="#9aa0a6" stop-opacity="0"/></linearGradient><linearGradient id="linear-gradient-4" x1="74" y1="106" x2="74" y2="79" gradientUnits="userSpaceOnUse"><stop offset="0" stop-color="#c5221f"/><stop offset="1" stop-color="#c5221f" stop-opacity="0"/></linearGradient><linearGradient id="linear-gradient-5" x1="211" x2="252.5" xlink:href="#linear-gradient"/><linearGradient id="linear-gradient-6" x1="140" x2="180" xlink:href="#linear-gradient"/><linearGradient id="linear-gradient-7" x1="55.956" y1="671.607" x2="55.956" y2="691.61" gradientTransform="matrix(0.927, 0.375, -0.375, 0.927, 442.229, -501.073)" gradientUnits="userSpaceOnUse"><stop offset="0" stop-color="#9aa0a6"/><stop offset="1" stop-color="#9aa0a6" stop-opacity="0"/></linearGradient><linearGradient id="linear-gradient-8" x1="51.883" y1="671.607" x2="51.883" y2="691.61" xlink:href="#linear-gradient-7"/><linearGradient id="linear-gradient-9" x1="74.576" y1="655.61" x2="74.576" y2="691.61" gradientTransform="matrix(0.927, 0.375, -0.375, 0.927, 442.229, -501.073)" xlink:href="#linear-gradient-4"/><linearGradient id="linear-gradient-10" x1="265.853" y1="135.371" x2="252.578" y2="168.228" xlink:href="#linear-gradient-4"/><linearGradient id="linear-gradient-12" x1="223.2" y1="118.145" x2="209.927" y2="150.997" xlink:href="#linear-gradient-4"/><linearGradient id="linear-gradient-13" x1="289.154" x2="321.154" xlink:href="#linear-gradient"/><linearGradient id="linear-gradient-14" x1="1421.455" y1="-452.61" x2="1428.955" y2="-445.11" gradientTransform="translate(-1133.467 579.444)" xlink:href="#linear-gradient-7"/><linearGradient id="linear-gradient-15" x1="1419.205" y1="-423.36" x2="1431.205" y2="-423.36" gradientTransform="translate(-1115.435 571.976)" gradientUnits="userSpaceOnUse"><stop offset="0" stop-color="#202124"/><stop offset="1" stop-color="#202124" stop-opacity="0"/></linearGradient><linearGradient id="linear-gradient-16" x1="1419.205" y1="-442.36" x2="1431.205" y2="-442.36" gradientTransform="translate(-398.642 1455.748) rotate(-45)" gradientUnits="userSpaceOnUse"><stop offset="0" stop-color="#f29900"/><stop offset="1" stop-color="#f29900" stop-opacity="0"/></linearGradient><linearGradient id="linear-gradient-17" x1="1602.607" y1="-329.285" x2="1614.607" y2="-329.285" gradientTransform="translate(-581.412 1532.347) rotate(-45)" xlink:href="#linear-gradient-16"/><linearGradient id="linear-gradient-18" x1="113" y1="154" x2="113" y2="140" xlink:href="#linear-gradient-4"/></defs><title>header</title><g style="isolation: isolate"><g><g><g><path d="M293.817,80.98a.5.5,0,0,1-.366-.841c.854-.918,1.319-1.46,1.323-1.465a.5.5,0,0,1,.76.65s-.475.555-1.351,1.5A.5.5,0,0,1,293.817,80.98Z" fill="#dadce0"/><path d="M233.934,114.5a.5.5,0,0,1-.334-.872,40.333,40.333,0,0,1,3.17-2.537.5.5,0,1,1,.59.809,39.028,39.028,0,0,0-3.092,2.473A.5.5,0,0,1,233.934,114.5Z" fill="#dadce0"/><path d="M243.764,107.582a.5.5,0,0,1-.264-.925l3.411-2.113a.5.5,0,1,1,.527.85l-3.411,2.113A.5.5,0,0,1,243.764,107.582Z" fill="#dadce0"/><path d="M244.982,101.666a.5.5,0,0,1-.19-.037,25.3,25.3,0,0,1-3.637-1.859.5.5,0,0,1,.525-.852,23.991,23.991,0,0,0,3.492,1.785.5.5,0,0,1-.19.963Z" fill="#dadce0"/><path d="M253.879,101.058a.5.5,0,0,1-.292-.906c1.179-.848,2.206-1.644,3.139-2.433a.5.5,0,0,1,.646.764c-.954.807-2,1.618-3.2,2.481A.5.5,0,0,1,253.879,101.058Z" fill="#dadce0"/><g><path d="M260.829,103.512a.845.845,0,0,1-.272-1.645c2.035-.691,4.134-1.515,6.238-2.449a.845.845,0,0,1,.687,1.545c-2.152.954-4.3,1.8-6.38,2.505A.871.871,0,0,1,260.829,103.512Z" fill="#dadce0"/><path d="M275.074,96.9a.92.92,0,0,1-.485-1.7c2.021-1.252,4.08-2.608,6.119-4.029a.92.92,0,0,1,1.053,1.509c-2.068,1.441-4.153,2.813-6.2,4.083A.917.917,0,0,1,275.074,96.9Z" fill="#dadce0"/></g><path d="M235.468,94.545a.5.5,0,0,1-.4-.2,15.312,15.312,0,0,1-1.992-3.619.5.5,0,1,1,.936-.355,14.247,14.247,0,0,0,1.861,3.381.5.5,0,0,1-.4.8Z" fill="#dadce0"/><path d="M262.331,92.623a.5.5,0,0,1-.434-.749,11.836,11.836,0,0,0,1.375-3.562.5.5,0,0,1,.588-.393.5.5,0,0,1,.393.588,12.81,12.81,0,0,1-1.488,3.864A.5.5,0,0,1,262.331,92.623Z" fill="#dadce0"/><path d="M285.092,89.253a.5.5,0,0,1-.322-.883c1-.84,2.009-1.725,3-2.631a.5.5,0,1,1,.674.74c-1,.914-2.024,1.808-3.032,2.656A.5.5,0,0,1,285.092,89.253Z" fill="#dadce0"/><path d="M233.02,83.165a.487.487,0,0,1-.111-.013.5.5,0,0,1-.376-.6,15.954,15.954,0,0,1,1.439-3.866.5.5,0,1,1,.885.465,15.018,15.018,0,0,0-1.35,3.624A.5.5,0,0,1,233.02,83.165Z" fill="#dadce0"/><path d="M262.571,81.141a.5.5,0,0,1-.451-.284,21.59,21.59,0,0,0-2.028-3.345.5.5,0,1,1,.809-.588,22.667,22.667,0,0,1,2.122,3.5.5.5,0,0,1-.451.716Z" fill="#dadce0"/><path d="M239.636,73.428a.5.5,0,0,1-.292-.906,16.755,16.755,0,0,1,3.615-1.982.5.5,0,1,1,.367.93,15.787,15.787,0,0,0-3.4,1.865A.5.5,0,0,1,239.636,73.428Z" fill="#dadce0"/><path d="M254.732,72.238a.5.5,0,0,1-.249-.066,12.645,12.645,0,0,0-3.58-1.391.5.5,0,0,1,.213-.977,13.618,13.618,0,0,1,3.865,1.5.5.5,0,0,1-.249.934Z" fill="#dadce0"/></g><rect x="25" y="162" width="25" height="6" fill="url(#linear-gradient)" style="mix-blend-mode: multiply"/><g><rect x="62" y="138" width="4" height="16" fill="#bdc1c6"/><rect x="62" y="139" width="4" height="7" opacity="0.5" fill="url(#linear-gradient-2)" style="mix-blend-mode: multiply"/><rect x="62" y="76" width="4" height="10" fill="#bdc1c6"/><circle cx="64" cy="112" r="28" fill="#dadce0"/><g clip-path="url(#clip-path)"><path d="M94.941,115.684H84.1a8.842,8.842,0,0,0-5.6,2L75,120.547a5.9,5.9,0,0,0-2.162,4.562v5.334a11.789,11.789,0,0,1-.352,2.859l-2.6,10.381,16.211.737,13.245-23.554Z" fill="#34a853"/><path d="M26.415,101.684l19.517-7.1a5.158,5.158,0,0,1,6.592,3.036l1.236,3.295a8.842,8.842,0,0,1-.455,7.223l-3.018,5.735a11.789,11.789,0,0,0-.555,9.764l1.061,2.729a5.9,5.9,0,0,1-3.389,7.643l-19.515,7.462L16.1,108.316Z" fill="#34a853"/><path d="M73.573,85.474l-1.7,3.4a2.947,2.947,0,0,0,1.174,3.877l3.984,2.277a11.789,11.789,0,0,1,5.335,6.508l.719,2.157a2.947,2.947,0,0,0,3.308,1.97l10.022-1.769L83.889,86.211Z" fill="#34a853"/><path d="M60.6,92.405l-1.333,3.667A2.947,2.947,0,0,0,59.4,98.4l.5,1a2.947,2.947,0,0,0,3.568,1.478l2.417-.806a2.947,2.947,0,0,0,2-2.471l.312-2.808a2.947,2.947,0,0,0-1.5-2.9l-1.9-1.054A2.947,2.947,0,0,0,60.6,92.405Z" fill="#34a853"/><path d="M77.973,107.052l-1.207-2.012a1.474,1.474,0,0,0-.683-.6l-4-1.716a1.474,1.474,0,0,0-1.372.111l-.1.062a1.474,1.474,0,0,0-.316,2.216l3.942,4.486a1.474,1.474,0,0,0,1.865.291l1.367-.82A1.474,1.474,0,0,0,77.973,107.052Z" fill="#34a853"/></g><path d="M78,162H72.123a4,4,0,0,1-3.881-3.03l-1.053-4.213a1,1,0,0,0-.97-.757H61.781a1,1,0,0,0-.97.757l-1.053,4.213A4,4,0,0,1,55.877,162H50a3,3,0,0,0,0,6H78a3,3,0,0,0,0-6Z" fill="#80868b"/><path d="M70,134A28,28,0,0,1,47.432,89.432a28,28,0,1,0,39.137,39.137A27.869,27.869,0,0,1,70,134Z" opacity="0.5" fill="url(#linear-gradient-3)" style="mix-blend-mode: multiply"/><circle cx="64" cy="76" r="2" fill="#bdc1c6"/><path d="M64,150a38,38,0,0,1,0-76v4a34,34,0,0,0,0,68Z" fill="#bdc1c6"/><g><path d="M74,79a9.991,9.991,0,0,0-8.486,15.273l.438.645L74,106l8.048-11.082.438-.645A9.986,9.986,0,0,0,74,79Z" fill="#ea4335"/><path d="M74,79a9.991,9.991,0,0,0-8.486,15.273l.438.645L74,106l8.048-11.082.438-.645A9.986,9.986,0,0,0,74,79Z" opacity="0.5" fill="url(#linear-gradient-4)" style="mix-blend-mode: multiply"/><path d="M71.5,84.669A5,5,0,1,1,69.669,86.5" fill="none" stroke="#fff" stroke-linecap="round" stroke-linejoin="round"/><circle cx="74" cy="89" r="5" fill="none" stroke="#fff" stroke-linecap="round" stroke-linejoin="round"/></g></g><rect x="211" y="162" width="41.5" height="6" fill="url(#linear-gradient-5)" style="mix-blend-mode: multiply"/><rect x="140" y="162" width="40" height="6" fill="url(#linear-gradient-6)" style="mix-blend-mode: multiply"/><rect width="360" height="204" fill="none"/><rect width="360" height="204" fill="none"/><g><polygon points="231.252 159.612 251.65 167.854 251.65 167.854 231.252 159.612" fill="none"/><polygon points="209.749 148.768 209.749 148.768 215.743 133.933 209.749 148.768" fill="none"/><polygon points="242.041 144.558 242.041 144.558 264.45 136.175 264.45 136.175 242.041 144.558" fill="none"/><polygon points="260.248 151.914 266.241 137.079 266.241 137.079 260.248 151.914" fill="none"/><polygon points="241.305 144.833 241.305 144.833 242.041 144.558 242.041 144.558 241.305 144.833" fill="#dadce0"/><polygon points="241.305 144.833 241.305 144.833 242.041 144.558 242.041 144.558 241.305 144.833" opacity="0.3" fill="url(#linear-gradient-7)" style="mix-blend-mode: multiply"/><path d="M242.041,144.558l-.736.275h0l-3.091,1.156a2.018,2.018,0,0,1-2.518-1.017l-1.755-3.681L223.649,119.7l-12.108,29.969-.687,1.7,20.4,8.241,20.4,8.241.687-1.7,12.112-29.979Z" fill="#dadce0"/><path d="M252.337,166.154l-10.3-21.6-.736.275h0l-3.091,1.156a2.018,2.018,0,0,1-2.518-1.017l-1.755-3.681-22.4,8.38-.687,1.7,20.4,8.241,20.4,8.241Z" opacity="0.3" fill="url(#linear-gradient-8)" style="mix-blend-mode: multiply"/><polygon points="242.041 144.558 264.45 136.175 264.454 136.165 242.038 144.55 242.041 144.558" fill="#e8eaed"/><path d="M224.788,118.173a2,2,0,0,1,1.056.994l10.269,21.539,1.1,2.313a1,1,0,0,0,1.253.506l2.41-.9,22.338-8.356a2,2,0,0,1,1.45.019l.47.19Z" fill="#e8eaed"/><path d="M242.038,144.55l-.818.306c.028-.01.057-.012.085-.023l.736-.275Z" fill="#e8eaed"/><path d="M238.2,145.985a1.994,1.994,0,0,1-1.444-.017,1.994,1.994,0,0,0,1.456.022l3.091-1.156c-.028.011-.057.013-.085.023Z" fill="#e8eaed"/><path d="M222.836,118a1.991,1.991,0,0,0-1.1,1.1l-5.994,14.835-5.994,14.835a2.008,2.008,0,0,0,1.105,2.6l.687-1.7L223.649,119.7Z" fill="#ea4335"/><polygon points="264.45 136.175 266.211 135.516 266.211 135.516 264.45 136.175 264.45 136.175" fill="#ea4335"/><polygon points="264.45 136.175 266.211 135.516 266.211 135.516 264.45 136.175 264.45 136.175" opacity="0.5" fill="url(#linear-gradient-9)" style="mix-blend-mode: multiply"/><path d="M266.211,135.516l-1.761.659-12.112,29.979-.687,1.7h0a2.008,2.008,0,0,0,2.6-1.105l5.994-14.835,5.994-14.835A1.99,1.99,0,0,0,266.211,135.516Z" fill="#ea4335"/><path d="M266.211,135.516l-1.761.659-12.112,29.979-.687,1.7h0a2.008,2.008,0,0,0,2.6-1.105l5.994-14.835,5.994-14.835A1.99,1.99,0,0,0,266.211,135.516Z" opacity="0.5" fill="url(#linear-gradient-10)" style="mix-blend-mode: multiply"/><polygon points="264.45 136.175 266.211 135.516 266.207 135.509 264.454 136.165 264.45 136.175" fill="#ea4335"/><polygon points="264.45 136.175 266.211 135.516 266.207 135.509 264.454 136.165 264.45 136.175" opacity="0.5" fill="url(#linear-gradient-9)" style="mix-blend-mode: multiply"/><polygon points="223.653 119.692 223.649 119.703 233.942 141.291 233.949 141.289 223.653 119.692" fill="#ea4335"/><path d="M235.708,144.977l-1.758-3.688-.008,0,1.755,3.681a2,2,0,0,0,1.062,1A1.994,1.994,0,0,1,235.708,144.977Z" fill="#ea4335"/><polygon points="233.949 141.289 223.653 119.692 223.653 119.692 233.949 141.289 233.949 141.289" fill="#ea4335"/><polygon points="223.653 119.692 222.844 117.995 222.836 117.997 223.649 119.703 223.653 119.692" fill="#ea4335"/><path d="M265.136,134.475l-.47-.19a2,2,0,0,0-1.45-.019l-22.338,8.356-2.41.9a1,1,0,0,1-1.253-.506l-1.1-2.313-10.269-21.539a2,2,0,0,0-1.056-.994l-.448-.181a1.99,1.99,0,0,0-1.5,0l.809,1.7,10.3,21.6h0l1.758,3.688a1.986,1.986,0,0,0,2.495,1.008l3.017-1.129.818-.306,22.416-8.386,1.753-.656A1.99,1.99,0,0,0,265.136,134.475Z" fill="#ea4335"/><path d="M222.836,118a1.991,1.991,0,0,0-1.1,1.1l-5.994,14.835-5.994,14.835a2.008,2.008,0,0,0,1.105,2.6l.687-1.7L223.649,119.7Z" opacity="0.5" fill="url(#linear-gradient-12)" style="mix-blend-mode: multiply"/></g><g><path data-name="Shield Shape 512dp" d="M180,168c29.725-14.018,40.334-39.383,43.05-57.715a110.107,110.107,0,0,0,.95-12.4V66.845l-44-13.1-44,13.1V97.89a110.164,110.164,0,0,0,.95,12.4C139.667,128.617,150.276,153.982,180,168Z" fill="#4285f4"/><g data-name="PRIVACY 512dp"><path d="M157.392,124.54c0-6.073,10.509-11.015,22.608-11.236,12.1.221,22.608,5.162,22.608,11.236v.635a29.171,29.171,0,1,0-45.215,0Z" fill="#185abc"/><path d="M202.608,124.54c0-6.073-10.509-11.015-22.608-11.236-12.1.221-22.608,5.162-22.608,11.236v.635a29.17,29.17,0,0,0,45.215,0Z" fill="#fff"/><circle cx="180" cy="96.287" r="11.669" fill="#fff"/></g></g><rect x="289.154" y="162" width="32" height="6" fill="url(#linear-gradient-13)" style="mix-blend-mode: multiply"/><g><rect x="287.385" y="126.23" width="8" height="8" transform="translate(-6.742 244.184) rotate(-45)" fill="#dadce0"/><rect x="287.738" y="127.084" width="8" height="7" transform="translate(-6.889 244.537) rotate(-45)" opacity="0.5" fill="url(#linear-gradient-14)" style="mix-blend-mode: multiply"/><rect x="303.77" y="132.615" width="12" height="32" transform="translate(-14.357 262.569) rotate(-45)" fill="#5f6368"/><circle cx="273" cy="111.846" r="19" transform="translate(0.873 225.799) rotate(-45)" fill="#4285f4" style="mix-blend-mode: multiply"/><path d="M291.335,132.18h10a1,1,0,0,1,1,1v5a0,0,0,0,1,0,0h-12a0,0,0,0,1,0,0v-5A1,1,0,0,1,291.335,132.18Z" transform="translate(-8.792 249.134) rotate(-45)" fill="#fbbc04"/><rect x="303.77" y="132.615" width="12" height="32" transform="translate(-14.357 262.569) rotate(-45)" opacity="0.5" fill="url(#linear-gradient-15)" style="mix-blend-mode: multiply"/><path d="M297.749,129.523l-7.071,7.071a1,1,0,0,0,0,1.414l3.536,3.536,8.485-8.485-3.536-3.536A1,1,0,0,0,297.749,129.523Z" opacity="0.5" fill="url(#linear-gradient-16)" style="mix-blend-mode: multiply"/><path d="M289.971,94.875a24,24,0,1,0,0,33.941A24,24,0,0,0,289.971,94.875Zm-3.536,30.406a19,19,0,1,1,0-26.87A19,19,0,0,1,286.435,125.281Z" fill="#dadce0"/><path d="M272.777,100a12,12,0,0,1,12,12" fill="none" stroke="#d2e3fc" stroke-linecap="round" stroke-miterlimit="10" stroke-width="2" style="mix-blend-mode: soft-light"/><path d="M318.2,159.05h10a1,1,0,0,1,1,1v5a0,0,0,0,1,0,0h-12a0,0,0,0,1,0,0v-5A1,1,0,0,1,318.2,159.05Z" transform="translate(666.332 48.097) rotate(135)" fill="#fbbc04"/><path d="M321.79,167.707l7.071-7.071a1,1,0,0,0,0-1.414l-3.536-3.536-8.485,8.485,3.536,3.536A1,1,0,0,0,321.79,167.707Z" opacity="0.5" fill="url(#linear-gradient-17)" style="mix-blend-mode: multiply"/></g><g><polygon points="286.517 63.353 325.154 53 296.764 66.819 286.517 63.353" fill="#e8eaed"/><polygon points="325.154 53 298.834 74.546 296.764 66.819 325.154 53" fill="#dadce0"/><polygon points="302.628 69.389 298.834 74.546 306.044 70.544 302.628 69.389" fill="#bdc1c6"/><polygon points="325.154 53 302.628 69.389 316.29 74.01 325.154 53" fill="#e8eaed"/></g><g><g><path d="M86,132a5,5,0,0,0-5,5v26a5,5,0,0,0,5,5h3V132Z" fill="#bdc1c6"/><path d="M140,132h-3v36h3a5,5,0,0,0,5-5V137A5,5,0,0,0,140,132Z" fill="#bdc1c6"/><rect x="89" y="132" width="48" height="36" fill="#e8eaed"/></g><rect x="85" y="145" width="1" height="10" rx="0.5" ry="0.5" fill="#9aa0a6"/><rect x="89" y="161.25" width="36" height="1.5" fill="#ea4335"/><g><path d="M122.58,142.19a2.511,2.511,0,0,0-1.77-1.77C119.25,140,113,140,113,140s-6.25,0-7.81.42a2.511,2.511,0,0,0-1.77,1.77,27.753,27.753,0,0,0,0,9.62,2.511,2.511,0,0,0,1.77,1.77c1.56.42,7.81.42,7.81.42s6.25,0,7.81-.42a2.511,2.511,0,0,0,1.77-1.77,27.753,27.753,0,0,0,0-9.62Z" fill="#ea4335"/><path d="M122.58,142.19a2.511,2.511,0,0,0-1.77-1.77C119.25,140,113,140,113,140s-6.25,0-7.81.42a2.511,2.511,0,0,0-1.77,1.77,27.753,27.753,0,0,0,0,9.62,2.511,2.511,0,0,0,1.77,1.77c1.56.42,7.81.42,7.81.42s6.25,0,7.81-.42a2.511,2.511,0,0,0,1.77-1.77,27.753,27.753,0,0,0,0-9.62Z" opacity="0.5" fill="url(#linear-gradient-18)" style="mix-blend-mode: color-burn"/><path d="M101,135h24v24H101Z" fill="none"/><path d="M111,144l5.2,3-5.2,3v-6m0-1a1,1,0,0,0-1,1v6a1,1,0,0,0,1.5.866l5.2-3a1,1,0,0,0,0-1.732l-5.2-3A1,1,0,0,0,111,143Z" fill="#fff"/></g><rect x="125" y="161.25" width="12" height="1.5" fill="#80868b"/><circle cx="125" cy="162" r="2" fill="#ea4335"/></g></g></g></g></svg>
