<svg xmlns="http://www.w3.org/2000/svg" xmlns:xlink="http://www.w3.org/1999/xlink" viewBox="0 0 320 180"><defs><style>.cls-1{isolation:isolate;}.cls-2{fill:url(#linear-gradient);}.cls-3{fill:url(#linear-gradient-2);}.cls-4{fill:url(#linear-gradient-3);}.cls-5{fill:#e8eaed;}.cls-6{fill:#bdc1c6;}.cls-7{opacity:0.2;fill:url(#linear-gradient-4);}.cls-8{fill:url(#linear-gradient-5);}.cls-9{fill:url(#linear-gradient-6);}.cls-10{fill:url(#linear-gradient-7);}.cls-11{fill:#34a853;}.cls-12,.cls-17,.cls-18,.cls-19,.cls-20,.cls-21,.cls-24,.cls-26,.cls-27,.cls-28,.cls-29,.cls-30,.cls-31,.cls-32,.cls-35{fill:none;}.cls-12,.cls-19,.cls-35{stroke:#fff;}.cls-12,.cls-17,.cls-18,.cls-19,.cls-21,.cls-24,.cls-26,.cls-29,.cls-30,.cls-31,.cls-32,.cls-35{stroke-miterlimit:10;}.cls-13,.cls-34{fill:#4285f4;}.cls-14{fill:#174ea6;}.cls-15{fill:#fff;}.cls-16{fill:#5f6368;}.cls-17,.cls-18{stroke:#dadce0;}.cls-18,.cls-19,.cls-20,.cls-26,.cls-27,.cls-28,.cls-29,.cls-30,.cls-31,.cls-32,.cls-35{stroke-linecap:round;}.cls-20,.cls-26,.cls-32{stroke:#fbbc04;}.cls-20,.cls-27,.cls-28{stroke-linejoin:round;}.cls-21{stroke:#3c4043;}.cls-22{fill:url(#linear-gradient-8);}.cls-23{fill:url(#linear-gradient-9);}.cls-24{stroke:#e8eaed;}.cls-25{fill:#fbbc04;}.cls-26{stroke-width:3px;}.cls-27,.cls-28{stroke:silver;}.cls-27{stroke-width:2px;}.cls-29{stroke:#4285f4;}.cls-29,.cls-30,.cls-31,.cls-32{stroke-width:7px;}.cls-30{stroke:#ea4335;}.cls-31{stroke:#34a853;}.cls-33{fill:#aecbfa;}.cls-34{opacity:0.5;mix-blend-mode:multiply;}.cls-35{stroke-width:0.93px;}.cls-36{mix-blend-mode:overlay;fill:url(#linear-gradient-10);}</style><linearGradient id="linear-gradient" x1="69.32" y1="120.46" x2="29.06" y2="120.46" gradientUnits="userSpaceOnUse"><stop offset="0" stop-color="#9aa0a6"/><stop offset="1" stop-color="#9aa0a6" stop-opacity="0"/></linearGradient><linearGradient id="linear-gradient-2" x1="94.03" y1="130.5" x2="57.09" y2="130.5" xlink:href="#linear-gradient"/><linearGradient id="linear-gradient-3" x1="143.9" y1="148.14" x2="98.68" y2="148.14" xlink:href="#linear-gradient"/><linearGradient id="linear-gradient-4" x1="155.32" y1="168.11" x2="155.32" y2="126.69" gradientUnits="userSpaceOnUse"><stop offset="0" stop-color="#9aa0a6"/><stop offset="0.15" stop-color="#9aa0a6" stop-opacity="0.97"/><stop offset="0.31" stop-color="#9aa0a6" stop-opacity="0.9"/><stop offset="0.46" stop-color="#9aa0a6" stop-opacity="0.77"/><stop offset="0.62" stop-color="#9aa0a6" stop-opacity="0.6"/><stop offset="0.79" stop-color="#9aa0a6" stop-opacity="0.37"/><stop offset="0.95" stop-color="#9aa0a6" stop-opacity="0.1"/><stop offset="1" stop-color="#9aa0a6" stop-opacity="0"/></linearGradient><linearGradient id="linear-gradient-5" x1="134.55" y1="86.04" x2="106.71" y2="86.04" gradientUnits="userSpaceOnUse"><stop offset="0" stop-color="#9aa0a6"/><stop offset="0.33" stop-color="#9ea4aa"/><stop offset="0.68" stop-color="#abb0b5"/><stop offset="1" stop-color="#bdc1c6"/></linearGradient><linearGradient id="linear-gradient-6" x1="134.55" y1="33.7" x2="106.71" y2="33.7" xlink:href="#linear-gradient-5"/><linearGradient id="linear-gradient-7" x1="175.41" y1="158.35" x2="175.41" y2="140.38" xlink:href="#linear-gradient-5"/><linearGradient id="linear-gradient-8" x1="331.3" y1="23.08" x2="275.04" y2="111.56" gradientUnits="userSpaceOnUse"><stop offset="0" stop-color="#fff"/><stop offset="1" stop-color="#fff" stop-opacity="0"/></linearGradient><linearGradient id="linear-gradient-9" x1="123.02" y1="89.91" x2="51.25" y2="89.91" gradientUnits="userSpaceOnUse"><stop offset="0" stop-color="#fff" stop-opacity="0"/><stop offset="0.43" stop-color="#fff" stop-opacity="0.44"/><stop offset="1" stop-color="#fff"/></linearGradient><linearGradient id="linear-gradient-10" x1="282.1" y1="39.83" x2="234.05" y2="74.99" gradientUnits="userSpaceOnUse"><stop offset="0" stop-color="#bdc1c6"/><stop offset="1" stop-color="#bdc1c6" stop-opacity="0"/></linearGradient></defs><title>scene_password_manager_welcome</title><g class="cls-1"><g><rect class="cls-2" x="27.88" y="117.61" width="42.41" height="5.7"/><rect class="cls-3" x="54.27" y="127.66" width="42.41" height="5.7"/><rect class="cls-4" x="91.28" y="145.29" width="42.41" height="5.7"/><polygon class="cls-5" points="75.13 113.27 105.26 113.27 105.26 133.35 85.17 123.31 75.13 113.27"/><polygon class="cls-6" points="125.38 123.31 135.42 133.35 95.25 133.35 105.29 123.31 105.29 38.72 125.38 38.72 125.38 123.31"/><circle class="cls-5" cx="185.27" cy="38.72" r="10.04"/><circle class="cls-5" cx="135.42" cy="140.94" r="10.04"/><polyline class="cls-5" points="195.31 140.94 195.31 38.72 185.26 28.68 115.33 28.68 125.38 38.72 125.38 140.94 135.42 150.99 182.09 150.99"/><path class="cls-7" d="M185.27,28.68H115.33l10,10V140.94a10.05,10.05,0,0,0,10,10.05h46.67l13.22-10.05V38.72A10,10,0,0,0,185.27,28.68Z"/><polygon class="cls-8" points="125.35 123.31 125.35 133.36 95.22 133.36 105.27 123.31 105.27 38.72 125.35 38.72 125.35 123.31"/><path class="cls-9" d="M105.27,38.72a10,10,0,1,1,20.08,0"/><path class="cls-5" d="M105.26,123.31a10,10,0,0,1-20.09,0"/><path class="cls-6" d="M65.09,123.31a10,10,0,0,1,20.08,0"/><path class="cls-6" d="M135.42,151a10,10,0,0,0,10-10.05h59.89V151Z"/><path class="cls-6" d="M215.39,140.94a10,10,0,1,1-20.08,0"/><path class="cls-10" d="M205.35,140.94H145.46a10,10,0,0,1-10,10.05h69.93a10,10,0,0,0,10-10.05Z"/><circle class="cls-11" cx="198.83" cy="97.91" r="10.59"/><polyline class="cls-12" points="193.43 98.33 196.76 101.65 204.24 94.17"/><circle class="cls-5" cx="245.3" cy="119.04" r="3.79"/><g data-name="shield security checkup yellow web 120dp-copy"><path class="cls-13" d="M239.57,99.85a32.94,32.94,0,0,0,18.77-25.48,47.94,47.94,0,0,0,.41-5.49V55.28l-19.16-5.87-19.17,5.87v13.6a50.33,50.33,0,0,0,.42,5.49A32.83,32.83,0,0,0,239.57,99.85Z"/><g data-name="PRIVACY Checkup 96dp"><path class="cls-14" d="M229.5,80.88c0-2.73,4.8-4.95,10.15-5,5.35.1,10.14,2.32,10.14,5v.25a13.17,13.17,0,0,0-1.32-17.74,12.88,12.88,0,0,0-17.63,0,13.17,13.17,0,0,0-1.33,17.74Z"/><path class="cls-15" d="M249.79,80.88c0-2.73-4.79-4.95-10.14-5-5.35.1-10.15,2.32-10.15,5v.25a12.89,12.89,0,0,0,18.1,2.19,12.61,12.61,0,0,0,2.19-2.19Z"/><ellipse class="cls-15" cx="239.65" cy="68.44" rx="5.08" ry="5.12"/></g></g><rect class="cls-5" x="257.45" y="102.57" width="23.85" height="35.83"/><path class="cls-16" d="M281.3,139.93a2.55,2.55,0,0,1-2.55,2.54H260a2.54,2.54,0,0,1-2.54-2.54V138.4H281.3Z"/><path class="cls-16" d="M257.45,101.05A2.55,2.55,0,0,1,260,98.5h18.76a2.55,2.55,0,0,1,2.55,2.55v1.52H257.45Z"/><line class="cls-17" x1="257.45" y1="120.49" x2="281.3" y2="120.49"/><line class="cls-18" x1="259.99" y1="124.96" x2="269.37" y2="124.96"/><line class="cls-18" x1="259.99" y1="129.44" x2="278.75" y2="129.44"/><line class="cls-18" x1="259.99" y1="133.92" x2="274.57" y2="133.92"/><line class="cls-19" x1="259.99" y1="107.05" x2="269.37" y2="107.05"/><line class="cls-18" x1="259.99" y1="111.53" x2="278.75" y2="111.53"/><line class="cls-20" x1="259.99" y1="116.01" x2="274.57" y2="116.01"/><line class="cls-21" x1="267.54" y1="100.54" x2="271.21" y2="100.54"/><path class="cls-22" d="M278.75,98.5H260a2.55,2.55,0,0,0-2.54,2.55v38.88a2.54,2.54,0,0,0,2.54,2.54h18.76a2.55,2.55,0,0,0,2.55-2.54V101.05A2.55,2.55,0,0,0,278.75,98.5Z"/><rect class="cls-23" x="25.81" y="22.09" width="99.02" height="135.65"/><rect class="cls-11" x="73.6" y="89.18" width="7.62" height="7.62" rx="1.47" transform="matrix(0.87, 0.5, -0.5, 0.87, 56.86, -26.25)"/><polyline class="cls-24" points="70.23 94.52 77.41 74.01 84.59 94.52"/><path class="cls-25" d="M46.68,110.73H59.75a.65.65,0,0,1,.65.65v2a0,0,0,0,1,0,0H46a0,0,0,0,1,0,0v-2A.65.65,0,0,1,46.68,110.73Z"/><path class="cls-25" d="M49.92,108.07H56.5a.65.65,0,0,1,.65.65v2a0,0,0,0,1,0,0H49.27a0,0,0,0,1,0,0v-2A.65.65,0,0,1,49.92,108.07Z"/><path class="cls-13" d="M25.14,90.31l5.94-1.78A1.54,1.54,0,0,1,33,90.41l-1.67,6a1.53,1.53,0,0,1-2.54.68l-4.28-4.2A1.53,1.53,0,0,1,25.14,90.31Z"/><polyline class="cls-24" points="21.83 94.52 29.02 74.01 36.2 94.52"/><path class="cls-25" d="M20,94.51H38a0,0,0,0,1,0,0v2a.65.65,0,0,1-.65.65H20.65a.65.65,0,0,1-.65-.65v-2A0,0,0,0,1,20,94.51Z"/><path class="cls-25" d="M68.39,94.51h18a0,0,0,0,1,0,0v2a.65.65,0,0,1-.65.65H69a.65.65,0,0,1-.65-.65v-2A0,0,0,0,1,68.39,94.51Z"/><line class="cls-26" x1="53.21" y1="110.71" x2="53.21" y2="70.77"/><path class="cls-25" d="M36.37,97.09a7.36,7.36,0,0,1-14.71,0"/><path class="cls-25" d="M84.76,97.09a7.36,7.36,0,0,1-14.71,0"/><path class="cls-26" d="M77.41,73.69c-12.67,0-12.72-2.92-24.2-2.92-10.77,0-10.72,2.92-24.19,2.92"/><line class="cls-27" x1="147.92" y1="45.03" x2="174.37" y2="45.03"/><line class="cls-28" x1="139.23" y1="76.8" x2="195.31" y2="76.8"/><line class="cls-28" x1="139.23" y1="87.39" x2="183.07" y2="87.39"/><line class="cls-28" x1="125.37" y1="97.98" x2="183.07" y2="97.98"/><line class="cls-28" x1="139.23" y1="108.46" x2="183.07" y2="108.46"/><line class="cls-28" x1="139.23" y1="119.05" x2="195.31" y2="119.05"/><line class="cls-27" x1="161.15" y1="129.59" x2="183.07" y2="129.59"/><line class="cls-29" x1="147.3" y1="60.4" x2="147.3" y2="60.4"/><line class="cls-30" x1="174.99" y1="60.4" x2="174.99" y2="60.4"/><line class="cls-31" x1="156.53" y1="60.4" x2="156.53" y2="60.4"/><line class="cls-32" x1="165.76" y1="60.4" x2="165.76" y2="60.4"/><circle class="cls-5" cx="209.25" cy="76.79" r="3.79"/><line class="cls-24" x1="195.31" y1="76.79" x2="208.15" y2="76.79"/><circle class="cls-5" cx="97.05" cy="97.97" r="3.79"/><line class="cls-24" x1="100.84" y1="97.97" x2="125.37" y2="97.97"/><line class="cls-24" x1="195.31" y1="119.04" x2="245.3" y2="119.04"/><circle class="cls-33" cx="281.7" cy="99.97" r="8.22"/><rect class="cls-13" x="287.7" y="104.68" width="3.04" height="4.86" transform="translate(8.97 235.89) rotate(-45)"/><rect class="cls-34" x="287.75" y="105.04" width="3.04" height="4.22" transform="translate(8.95 235.93) rotate(-45)"/><path class="cls-13" d="M288.05,93a9.13,9.13,0,1,0,0,12.91A9.13,9.13,0,0,0,288.05,93Zm-1.35,11.57a7.23,7.23,0,1,1,0-10.23A7.24,7.24,0,0,1,286.7,104.59Z"/><path class="cls-35" d="M281.5,95a4.57,4.57,0,0,1,4.57,4.56"/><path class="cls-13" d="M300.1,114.72l-1.33-1.33-6.07-6.07L291.37,106a.37.37,0,0,0-.53,0l-2.66,2.66a.39.39,0,0,0,0,.53l1.33,1.33,6.07,6.07,1.33,1.33a.39.39,0,0,0,.53,0l2.66-2.66A.37.37,0,0,0,300.1,114.72Z"/><path data-name="Shape" class="cls-36" d="M239.57,99.85a32.94,32.94,0,0,0,18.77-25.48,47.94,47.94,0,0,0,.41-5.49V55.28l-19.16-5.87-19.17,5.87v13.6a50.33,50.33,0,0,0,.42,5.49A32.83,32.83,0,0,0,239.57,99.85Z"/></g></g></svg>
