<svg xmlns="http://www.w3.org/2000/svg" xmlns:xlink="http://www.w3.org/1999/xlink" viewBox="0 0 320 180"><defs><style>.cls-1{fill:#d9dce0;}.cls-14,.cls-17,.cls-2,.cls-22,.cls-23,.cls-39,.cls-40,.cls-45,.cls-49{fill:none;}.cls-3{isolation:isolate;}.cls-4{fill:url(#linear-gradient);}.cls-5{fill:url(#linear-gradient-2);}.cls-6{fill:url(#linear-gradient-3);}.cls-36,.cls-7{fill:#e8eaed;}.cls-21,.cls-38,.cls-42,.cls-43,.cls-47,.cls-7{opacity:0.5;}.cls-8{fill:#fbbc04;}.cls-9{fill:#f57c00;}.cls-10{fill:#dadce0;}.cls-11{fill:#34a853;}.cls-12{fill:#bdc1c6;}.cls-13{clip-path:url(#clip-path);}.cls-14{stroke:#e9eaed;}.cls-14,.cls-17,.cls-22,.cls-23{stroke-miterlimit:10;}.cls-15,.cls-25,.cls-26,.cls-30,.cls-32{opacity:0.3;}.cls-15{fill:url(#linear-gradient-4);}.cls-16{fill:#e9eaed;}.cls-17,.cls-23{stroke:#d9dce0;}.cls-17{stroke-width:5px;}.cls-18{fill:#f9ab00;}.cls-19{fill:#aecbfa;}.cls-20,.cls-21{fill:#4285f4;}.cls-21,.cls-28,.cls-35,.cls-38,.cls-46,.cls-47{mix-blend-mode:multiply;}.cls-22,.cls-45,.cls-49{stroke:#fff;}.cls-22,.cls-39,.cls-45,.cls-49{stroke-linecap:round;}.cls-22,.cls-45{stroke-width:0.93px;}.cls-24{clip-path:url(#clip-path-2);}.cls-25{fill:url(#linear-gradient-5);}.cls-26{fill:url(#linear-gradient-6);}.cls-27{clip-path:url(#clip-path-3);}.cls-28{fill:url(#linear-gradient-7);}.cls-29{clip-path:url(#clip-path-4);}.cls-30{fill:url(#linear-gradient-8);}.cls-31{fill:url(#linear-gradient-9);}.cls-32{fill:url(#linear-gradient-10);}.cls-33{fill:url(#linear-gradient-11);}.cls-34{fill:#fff;}.cls-35{fill:url(#linear-gradient-12);}.cls-37{fill:#ea4335;}.cls-38{fill:url(#linear-gradient-13);}.cls-39{stroke:#5f6368;}.cls-39,.cls-40,.cls-45,.cls-49{stroke-linejoin:round;}.cls-40{stroke:#202124;}.cls-41{fill:#202124;}.cls-42{fill:url(#linear-gradient-14);}.cls-43{fill:url(#linear-gradient-15);}.cls-44{fill:#ea3f32;}.cls-47{fill:url(#linear-gradient-16);}.cls-48{fill:#8ab4f8;}.cls-49{stroke-width:1.15px;}</style><linearGradient id="linear-gradient" x1="60.52" y1="117.4" x2="9.8" y2="117.4" gradientUnits="userSpaceOnUse"><stop offset="0" stop-color="#9aa0a6"/><stop offset="1" stop-color="#9aa0a6" stop-opacity="0"/></linearGradient><linearGradient id="linear-gradient-2" x1="229.01" y1="117.4" x2="178.29" y2="117.4" xlink:href="#linear-gradient"/><linearGradient id="linear-gradient-3" x1="166.92" y1="156.89" x2="116.2" y2="156.89" xlink:href="#linear-gradient"/><clipPath id="clip-path"><path class="cls-1" d="M102.92,73.78h9.9a0,0,0,0,1,0,0v46.69a0,0,0,0,1,0,0h-9.9a3.3,3.3,0,0,1-3.3-3.3V77.08A3.3,3.3,0,0,1,102.92,73.78Z" transform="translate(212.44 194.25) rotate(180)"/></clipPath><linearGradient id="linear-gradient-4" x1="72.87" y1="91" x2="72.87" y2="109.17" xlink:href="#linear-gradient"/><clipPath id="clip-path-2"><path class="cls-1" d="M278.21,100.58h10.3a0,0,0,0,1,0,0v19.9a0,0,0,0,1,0,0h-10.3a2.9,2.9,0,0,1-2.9-2.9v-14.1A2.9,2.9,0,0,1,278.21,100.58Z" transform="translate(563.82 221.05) rotate(180)"/></clipPath><linearGradient id="linear-gradient-5" x1="216.74" y1="121.18" x2="216.74" y2="106.53" gradientTransform="translate(433.49 221.03) rotate(-180)" xlink:href="#linear-gradient"/><linearGradient id="linear-gradient-6" x1="275.31" y1="121.18" x2="275.31" y2="106.53" xlink:href="#linear-gradient"/><clipPath id="clip-path-3"><path class="cls-2" d="M233.06,67.58h26A11.54,11.54,0,0,1,270.6,79.12v41.34a0,0,0,0,1,0,0H221.52a0,0,0,0,1,0,0V79.12A11.54,11.54,0,0,1,233.06,67.58Z"/></clipPath><linearGradient id="linear-gradient-7" x1="245.72" y1="114.97" x2="245.72" y2="61.84" gradientUnits="userSpaceOnUse"><stop offset="0" stop-color="#bdc1c6" stop-opacity="0"/><stop offset="0.14" stop-color="#bdc1c6" stop-opacity="0.02"/><stop offset="0.28" stop-color="#bdc1c6" stop-opacity="0.08"/><stop offset="0.42" stop-color="#bdc1c6" stop-opacity="0.19"/><stop offset="0.57" stop-color="#bdc1c6" stop-opacity="0.34"/><stop offset="0.72" stop-color="#bdc1c6" stop-opacity="0.52"/><stop offset="0.86" stop-color="#bdc1c6" stop-opacity="0.75"/><stop offset="1" stop-color="#bdc1c6"/></linearGradient><clipPath id="clip-path-4"><path class="cls-2" d="M140.3,119.65H106.15a2.89,2.89,0,0,0,2.89-2.9V75.83a2.12,2.12,0,0,0-2.16-2l-66.73,0V20.62H140.3Z"/></clipPath><linearGradient id="linear-gradient-8" x1="246.06" y1="124.1" x2="246.06" y2="109.12" xlink:href="#linear-gradient"/><linearGradient id="linear-gradient-9" x1="274.35" y1="43.63" x2="250.13" y2="90.5" gradientUnits="userSpaceOnUse"><stop offset="0" stop-color="#fff"/><stop offset="1" stop-color="#fff" stop-opacity="0"/></linearGradient><linearGradient id="linear-gradient-10" x1="72.87" y1="131.05" x2="72.87" y2="111.19" xlink:href="#linear-gradient"/><linearGradient id="linear-gradient-11" x1="88.67" y1="45.51" x2="76.95" y2="83.79" xlink:href="#linear-gradient-9"/><linearGradient id="linear-gradient-12" x1="125.75" y1="128.3" x2="186.81" y2="128.3" gradientUnits="userSpaceOnUse"><stop offset="0" stop-color="#4285f4" stop-opacity="0.4"/><stop offset="1" stop-color="#4285f4" stop-opacity="0"/></linearGradient><linearGradient id="linear-gradient-13" x1="231.39" y1="26.36" x2="258.84" y2="26.36" gradientUnits="userSpaceOnUse"><stop offset="0" stop-color="#c5221f"/><stop offset="1" stop-color="#c5221f" stop-opacity="0"/></linearGradient><linearGradient id="linear-gradient-14" x1="79.27" y1="36.33" x2="79.27" y2="23.14" gradientUnits="userSpaceOnUse"><stop offset="0.08" stop-color="#e8eaed"/><stop offset="1" stop-color="#c8cbd0"/></linearGradient><linearGradient id="linear-gradient-15" x1="79.27" y1="46.99" x2="79.27" y2="38.42" xlink:href="#linear-gradient-14"/><linearGradient id="linear-gradient-16" x1="67.43" y1="21.96" x2="91.1" y2="21.96" xlink:href="#linear-gradient-13"/></defs><title>scene_password_manager_welcome copy 7</title><g class="cls-3"><g><rect class="cls-4" y="114.33" width="53.56" height="6.14"/><rect class="cls-5" x="168.49" y="114.33" width="53.56" height="6.14"/><rect class="cls-6" x="106.41" y="153.82" width="53.56" height="6.14"/><rect class="cls-7" x="20.19" y="52.31" width="31.17" height="30.2" rx="1.86"/><rect class="cls-8" x="23.92" y="73.18" width="5.69" height="5.61" rx="0.93"/><rect class="cls-8" x="32.56" y="67.51" width="5.69" height="11.28" rx="0.93"/><rect class="cls-9" x="41.95" y="59.76" width="5.69" height="19.03" rx="0.93"/><path class="cls-10" d="M49.5,52.31H22.05a1.86,1.86,0,0,0-1.86,1.86V56H51.36V54.17A1.86,1.86,0,0,0,49.5,52.31Z"/><path class="cls-11" d="M222.91,92.41l-1.73,3.51a1.58,1.58,0,0,1-2.39.54h0a1.57,1.57,0,0,1-.07-2.4l2.91-2.62a.83.83,0,0,1,1-.08h0A.81.81,0,0,1,222.91,92.41Z"/><path class="cls-12" d="M102.52,73.78h10.3a0,0,0,0,1,0,0v46.69a0,0,0,0,1,0,0h-10.3a2.9,2.9,0,0,1-2.9-2.9V76.68A2.9,2.9,0,0,1,102.52,73.78Z" transform="translate(212.44 194.25) rotate(180)"/><path class="cls-1" d="M102.92,73.78h9.9a0,0,0,0,1,0,0v46.69a0,0,0,0,1,0,0h-9.9a3.3,3.3,0,0,1-3.3-3.3V77.08A3.3,3.3,0,0,1,102.92,73.78Z" transform="translate(212.44 194.25) rotate(180)"/><g class="cls-13"><path class="cls-14" d="M105.71,73.37a2.86,2.86,0,0,1,2.89,2.83v41.85a2.86,2.86,0,0,1-2.89,2.84"/></g><rect class="cls-1" x="41.29" y="73.78" width="63.16" height="46.69" rx="3.3"/><path class="cls-15" d="M44.58,75.71h56.57a3.3,3.3,0,0,1,3.3,3.3V102.5a0,0,0,0,1,0,0H41.29a0,0,0,0,1,0,0V79A3.3,3.3,0,0,1,44.58,75.71Z"/><path class="cls-16" d="M44.58,73.78h56.57a3.3,3.3,0,0,1,3.3,3.3v23.49a0,0,0,0,1,0,0H41.29a0,0,0,0,1,0,0V77.08A3.3,3.3,0,0,1,44.58,73.78Z"/><path class="cls-17" d="M84.51,73.88V67.05a2.9,2.9,0,0,0-2.9-2.9H67.43a2.9,2.9,0,0,0-2.9,2.9v6.83"/><path class="cls-18" d="M89.08,100.58h4.49a1.93,1.93,0,0,1,1.93,1.93v.64a0,0,0,0,1,0,0H87.15a0,0,0,0,1,0,0v-.64A1.93,1.93,0,0,1,89.08,100.58Z" transform="translate(182.66 203.72) rotate(180)"/><path class="cls-18" d="M51.53,100.58H56a1.93,1.93,0,0,1,1.93,1.93v.64a0,0,0,0,1,0,0H49.6a0,0,0,0,1,0,0v-.64A1.93,1.93,0,0,1,51.53,100.58Z" transform="translate(107.54 203.72) rotate(180)"/><path class="cls-8" d="M51.53,97.18H56a1.93,1.93,0,0,1,1.93,1.93v.64a0,0,0,0,1,0,0H49.6a0,0,0,0,1,0,0v-.64A1.93,1.93,0,0,1,51.53,97.18Z"/><path class="cls-8" d="M89.08,97.18h4.49a1.93,1.93,0,0,1,1.93,1.93v.64a0,0,0,0,1,0,0H87.15a0,0,0,0,1,0,0v-.64A1.93,1.93,0,0,1,89.08,97.18Z"/><circle class="cls-19" cx="207.12" cy="57.56" r="9.28"/><rect class="cls-20" x="213.9" y="62.89" width="3.44" height="5.49" transform="translate(16.74 171.69) rotate(-45)"/><rect class="cls-21" x="213.94" y="63.3" width="3.44" height="4.77" transform="translate(16.72 171.73) rotate(-45)"/><path class="cls-20" d="M214.28,49.72a10.31,10.31,0,1,0,0,14.58A10.3,10.3,0,0,0,214.28,49.72Zm-1.52,13.06a8.16,8.16,0,1,1,0-11.54A8.15,8.15,0,0,1,212.76,62.78Z"/><path class="cls-22" d="M206.9,51.92a5.16,5.16,0,0,1,5.15,5.16"/><path class="cls-20" d="M227.89,74.22l-1.5-1.5-6.85-6.85-1.5-1.5a.42.42,0,0,0-.6,0l-3,3a.42.42,0,0,0,0,.6l1.5,1.5,6.85,6.85,1.5,1.5a.43.43,0,0,0,.6,0l3-3A.43.43,0,0,0,227.89,74.22Z"/><path class="cls-1" d="M257.14,66.55h21a0,0,0,0,1,0,0v46.69a0,0,0,0,1,0,0H265.78a11.54,11.54,0,0,1-11.54-11.54V69.44A2.9,2.9,0,0,1,257.14,66.55Z" transform="translate(532.42 179.78) rotate(180)"/><path class="cls-17" d="M259.5,70.58h0a9.73,9.73,0,0,0-9.73-9.73h-.52a9.73,9.73,0,0,0-9.73,9.73h0"/><path class="cls-1" d="M233.06,67.58h26A11.54,11.54,0,0,1,270.6,79.12v41.34a0,0,0,0,1,0,0H221.52a0,0,0,0,1,0,0V79.12A11.54,11.54,0,0,1,233.06,67.58Z"/><path class="cls-16" d="M263.11,120.47V113.2a8,8,0,0,0-8-8H237a8,8,0,0,0-8,8v7.25"/><path class="cls-23" d="M259,120.47v-6.22a4.94,4.94,0,0,0-4.94-4.94h-16a4.94,4.94,0,0,0-4.94,4.94v6.2"/><path class="cls-12" d="M278.21,100.58h10.3a0,0,0,0,1,0,0v19.9a0,0,0,0,1,0,0h-10.3a2.9,2.9,0,0,1-2.9-2.9v-14.1A2.9,2.9,0,0,1,278.21,100.58Z" transform="translate(563.82 221.05) rotate(180)"/><path class="cls-1" d="M278.21,100.58h10.3a0,0,0,0,1,0,0v19.9a0,0,0,0,1,0,0h-10.3a2.9,2.9,0,0,1-2.9-2.9v-14.1A2.9,2.9,0,0,1,278.21,100.58Z" transform="translate(563.82 221.05) rotate(180)"/><g class="cls-24"><path class="cls-14" d="M270.87,120.89h10.8a3,3,0,0,0,3-3V103.07a3,3,0,0,0-3-3h-10.8"/></g><path class="cls-16" d="M270.6,100.58h6.18a3.3,3.3,0,0,1,3.3,3.3v13.29a3.3,3.3,0,0,1-3.3,3.3H270.6a0,0,0,0,1,0,0V100.58A0,0,0,0,1,270.6,100.58Z"/><path class="cls-16" d="M212,100.58h6.18a3.3,3.3,0,0,1,3.3,3.3v13.29a3.3,3.3,0,0,1-3.3,3.3H212a0,0,0,0,1,0,0V100.58A0,0,0,0,1,212,100.58Z" transform="translate(433.49 221.03) rotate(180)"/><path class="cls-25" d="M212,100.58h6.18a3.3,3.3,0,0,1,3.3,3.3v13.29a3.3,3.3,0,0,1-3.3,3.3H212a0,0,0,0,1,0,0V100.58A0,0,0,0,1,212,100.58Z" transform="translate(433.49 221.03) rotate(180)"/><path class="cls-26" d="M270.58,100.58h6.16a3.29,3.29,0,0,1,3.29,3.29v13.29a3.29,3.29,0,0,1-3.29,3.29h-6.16a0,0,0,0,1,0,0V100.58A0,0,0,0,1,270.58,100.58Z"/><g class="cls-27"><path class="cls-28" d="M220.93,87.66a11.82,11.82,0,0,0,11.82,11.82h26.62a11.82,11.82,0,0,0,11.82-11.82V60.18H220.25Z"/><path class="cls-16" d="M220.93,85a11.82,11.82,0,0,0,11.82,11.81h26.62A11.82,11.82,0,0,0,271.19,85V57.53H220.25Z"/></g><circle class="cls-11" cx="246.06" cy="89.56" r="2.19"/><path class="cls-11" d="M263.76,112.72l2.08,3.31a1.57,1.57,0,0,1-.79,2.32h0a1.57,1.57,0,0,1-2.08-1.2l-.71-3.85a.81.81,0,0,1,.44-.88h0A.82.82,0,0,1,263.76,112.72Z"/><path class="cls-11" d="M285.62,107.7l2.22,3.22a1.57,1.57,0,0,1-.69,2.35h0a1.58,1.58,0,0,1-2.14-1.11l-.86-3.81a.83.83,0,0,1,.41-.91h0A.82.82,0,0,1,285.62,107.7Z"/><g class="cls-29"><path class="cls-20" d="M107,81.33l5.75-10h23l-5.76,10Z"/><path class="cls-8" d="M124.3,71.36h11.51L124.3,51.43H112.79Z"/><path class="cls-11" d="M101.29,71.36l5.75,10,11.51-19.94-5.76-10Z"/></g><path class="cls-30" d="M259.06,67.58h-26a11.54,11.54,0,0,0-11.54,11.54v41.33H270.6V79.12A11.54,11.54,0,0,0,259.06,67.58Z"/><path class="cls-31" d="M259.06,67.58h-26a11.54,11.54,0,0,0-11.54,11.54v41.33H270.6V79.12A11.54,11.54,0,0,0,259.06,67.58Z"/><rect class="cls-32" x="41.29" y="73.78" width="63.16" height="46.69" rx="3.3"/><rect class="cls-33" x="41.29" y="73.78" width="63.16" height="46.69" rx="3.3"/><g data-name="shield security checkup yellow web 120dp-copy"><g data-name="PRIVACY Checkup 96dp"><path class="cls-20" d="M133.18,146.24c0-7.2,12.68-13.07,26.81-13.33,14.13.26,26.81,6.13,26.81,13.33v.67A34.82,34.82,0,0,0,183.29,100a34,34,0,0,0-46.58,0,34.82,34.82,0,0,0-3.51,46.88Z"/><path class="cls-34" d="M186.8,146.24c0-7.2-12.68-13.07-26.81-13.33-14.13.26-26.81,6.13-26.81,13.33v.67a34.06,34.06,0,0,0,53.62,0Z"/><ellipse class="cls-34" cx="159.99" cy="113.37" rx="13.41" ry="13.53"/></g></g><path class="cls-35" d="M140.89,139.76v0A34.8,34.8,0,0,1,141,96.64a34.52,34.52,0,0,0-7.83,50.25v0a34.06,34.06,0,0,0,53.62,0v0A34,34,0,0,1,140.89,139.76Z"/><polygon class="cls-36" points="262.34 50.12 258.84 29.12 232.31 29.12 235.81 50.12 262.34 50.12"/><polygon class="cls-37" points="257.92 23.6 231.39 23.6 232.31 29.12 258.84 29.12 257.92 23.6"/><polygon class="cls-38" points="257.92 23.6 231.39 23.6 232.31 29.12 258.84 29.12 257.92 23.6"/><polygon class="cls-12" points="231.39 23.6 235.81 50.12 231.39 50.12 231.39 23.6"/><polygon class="cls-10" points="231.39 23.6 226.97 50.12 231.39 50.12 231.39 23.6"/><path class="cls-39" d="M240.82,35.9a2.21,2.21,0,0,1,2.23-2.68,3.29,3.29,0,0,1,3.12,2.68,2.2,2.2,0,0,1-2.23,2.67"/><path class="cls-39" d="M243.94,38.57a4.4,4.4,0,0,1,4.17,3.57,2.94,2.94,0,0,1-3,3.56A4.39,4.39,0,0,1,241,42.14"/><polyline class="cls-39" points="254.05 45.7 251.96 33.22 250.11 35.45"/><path class="cls-40" d="M238,23.6a2.21,2.21,0,1,1,2.21,2.21"/><circle class="cls-41" cx="240.23" cy="25.81" r="0.37"/><path class="cls-40" d="M249.08,23.6a2.21,2.21,0,1,1,2.21,2.21"/><circle class="cls-41" cx="251.29" cy="25.81" r="0.37"/><path class="cls-42" d="M63.48,29.85,76.78,42a3.68,3.68,0,0,0,5,0l13.3-12.19Z"/><path class="cls-7" d="M81.75,42a3.68,3.68,0,0,1-5,0L63.48,29.85V53.53H95.05V29.85Z"/><path class="cls-10" d="M81.75,42a3.68,3.68,0,0,1-5,0l-.38-.35L63.48,53.53H95.05L82.14,41.69Z"/><path class="cls-43" d="M81.75,42a3.68,3.68,0,0,1-5,0l-.38-.35L63.48,53.53H95.05L82.14,41.69Z"/><path class="cls-44" d="M91.1,20.27H67.43v13.2L76.78,42a3.68,3.68,0,0,0,5,0l9.35-8.57V20.27Z"/><path class="cls-45" d="M79.41,35.49h0a3,3,0,0,1-3-3h0a3,3,0,0,1,3.68-2.87l.83.2V34A1.54,1.54,0,0,1,79.41,35.49Z"/><path class="cls-45" d="M81,33.23a2.26,2.26,0,1,0,4.51,0v-.56"/><path class="cls-45" d="M79.27,38.87a6.2,6.2,0,1,1,6.2-6.2"/><g class="cls-46"><rect class="cls-47" x="67.43" y="20.27" width="23.68" height="3.38"/></g><path class="cls-20" d="M292.45,58.92a2.06,2.06,0,0,0-2.05-2.05l-13.47,0v6a1.77,1.77,0,0,1-1.78,1.78h-6V69a12.06,12.06,0,0,1,5.14,5.41l6.26-.06-6.26.06a11.89,11.89,0,0,1,1.2,5.19v.56l14.9,0a2,2,0,0,0,2.05-2.05Zm-18.74,11.6,14.27,0Zm0-3.8,14.27,0Z"/><path class="cls-48" d="M276.93,62.87v-6l-7.75,7.77h6A1.77,1.77,0,0,0,276.93,62.87Z"/><line class="cls-49" x1="276.36" y1="66.83" x2="289.15" y2="66.86"/><line class="cls-49" x1="276.33" y1="70.24" x2="289.13" y2="70.27"/><line class="cls-49" x1="276.37" y1="73.73" x2="282.49" y2="73.68"/><path class="cls-14" d="M274.9,111.77V79.52A11.54,11.54,0,0,0,263.36,68H251"/></g></g></svg>
