<?xml version="1.0" encoding="UTF-8"?>
<svg xmlns="http://www.w3.org/2000/svg" xmlns:xlink="http://www.w3.org/1999/xlink" viewBox="0 0 24 24" width="24px" height="24px">
<g id="surface5390781">
<rect x="0" y="0" width="24" height="24" style="fill:rgb(15.294118%,15.294118%,15.294118%);fill-opacity:1;stroke:none;"/>
<path style=" stroke:none;fill-rule:nonzero;fill:rgb(100%,100%,100%);fill-opacity:1;" d="M 11 4 L 3 9 L 8.492188 9 C 8.472656 9.074219 8.4375 9.144531 8.421875 9.222656 C 8.375 9.464844 8.339844 9.730469 8.339844 10.007812 C 8.339844 13.578125 11.988281 13.175781 11.988281 13.175781 L 11.988281 14.085938 C 11.988281 14.453125 12.472656 14.328125 12.53125 15.078125 C 12.289062 15.078125 7.472656 14.9375 7.472656 18.183594 C 7.472656 21.445312 11.722656 21.285156 11.722656 21.285156 C 11.722656 21.285156 16.632812 21.503906 16.632812 17.472656 C 16.636719 15.0625 13.820312 14.28125 13.820312 13.3125 C 13.820312 12.332031 15.941406 12.046875 15.941406 9.753906 C 15.941406 8.75 15.871094 8.039062 15.421875 7.53125 C 15.390625 7.496094 15.367188 7.472656 15.332031 7.449219 C 15.324219 7.441406 15.316406 7.4375 15.304688 7.429688 L 15.429688 7.429688 L 17.5 5.875 L 17.5 8 C 17.5 8.039062 17.503906 8.078125 17.511719 8.113281 C 17.191406 8.292969 16.996094 8.632812 17 9 L 17 10 C 16.996094 10.359375 17.183594 10.695312 17.496094 10.878906 C 17.808594 11.058594 18.191406 11.058594 18.503906 10.878906 C 18.816406 10.695312 19.003906 10.359375 19 10 L 19 9 C 19.003906 8.632812 18.808594 8.292969 18.488281 8.113281 C 18.496094 8.078125 18.5 8.039062 18.5 8 L 18.5 5.125 L 20 4 Z M 11.691406 7.054688 C 11.980469 7.039062 12.269531 7.109375 12.542969 7.265625 C 12.75 7.371094 12.945312 7.519531 13.121094 7.703125 C 13.476562 8.058594 13.777344 8.578125 13.9375 9.191406 C 14.316406 10.640625 13.824219 12.035156 12.800781 12.300781 C 11.785156 12.585938 10.65625 11.640625 10.265625 10.203125 C 10.089844 9.5 10.113281 8.820312 10.3125 8.28125 C 10.3125 8.273438 10.316406 8.265625 10.320312 8.261719 C 10.320312 8.257812 10.328125 8.253906 10.332031 8.253906 C 10.386719 8.039062 10.476562 7.847656 10.589844 7.6875 C 10.796875 7.386719 11.066406 7.183594 11.40625 7.09375 C 11.5 7.070312 11.59375 7.058594 11.691406 7.054688 Z M 12.082031 15.6875 C 13.773438 15.558594 15.214844 16.492188 15.320312 17.757812 C 15.390625 19.015625 14.085938 20.132812 12.382812 20.246094 C 10.691406 20.359375 9.226562 19.441406 9.148438 18.1875 C 9.066406 16.917969 10.378906 15.8125 12.082031 15.6875 Z M 12.082031 15.6875 "/>
</g>
</svg>
