<svg width="77" height="63" viewBox="0 0 77 63" fill="none" xmlns="http://www.w3.org/2000/svg">
<g clip-path="url(#clip0_184_7779)">
<path d="M55.556 46.3493L65.1842 33.8366C65.2139 33.7978 65.2402 33.7563 65.2687 33.7172C66.3758 32.2877 67.0796 30.5748 67.3076 28.755C67.6493 25.9965 66.9137 23.1841 65.2571 20.9157C63.6004 18.6473 61.1534 17.1017 58.436 16.6074L42.4992 13.8072C28.6456 11.647 20.2735 22.3388 20.2735 22.3388L10.6448 34.8584C10.6165 34.8964 10.5912 34.9364 10.5629 34.9744C9.45607 36.4042 8.75245 38.1173 8.52444 39.9373C8.18271 42.6958 8.91833 45.5082 10.575 47.7766C12.2316 50.045 14.6786 51.5906 17.396 52.0849L33.3304 54.8808C33.3304 54.8808 46.2485 58.3242 55.556 46.3493Z" fill="white"/>
<path d="M25.9107 38.9926C25.9229 38.9927 25.9349 38.9901 25.9458 38.9848C25.9567 38.9795 25.9661 38.9717 25.9735 38.962L31.5843 31.6695C32.9106 29.9462 32.5747 27.3851 30.8337 25.9503C29.0927 24.5155 26.6073 24.7484 25.281 26.4716L15.6554 38.981C15.6447 38.9941 15.638 39.0102 15.6363 39.0273C15.6346 39.0444 15.6379 39.0618 15.6458 39.0773C15.6536 39.0927 15.6657 39.1056 15.6806 39.1144C15.6954 39.1231 15.7124 39.1273 15.7293 39.1265L25.9107 38.9926Z" fill="#E84435"/>
<path d="M36.1566 48.3376C36.8016 48.0893 37.3648 47.6685 37.7878 47.1189C38.2108 46.5694 38.4781 45.9111 38.5618 45.2126C38.8391 43.0029 37.3054 40.9019 35.1352 40.5211L19.1996 37.723C18.6857 37.6315 18.1615 37.6452 17.6581 37.7632C17.1547 37.8812 16.6824 38.1011 16.269 38.4099C15.8556 38.7188 15.5097 39.1102 15.2516 39.5611C14.9935 40.012 14.8285 40.5132 14.7665 41.035C14.6343 42.1005 14.9184 43.1869 15.5582 44.0632C16.198 44.9394 17.1432 45.5365 18.1928 45.7276L34.1287 48.5245C34.8136 48.6476 35.5138 48.5831 36.1566 48.3376Z" fill="#2376E5"/>
<path d="M48.9274 43.4353C49.5684 43.1894 50.1277 42.7709 50.5466 42.224L60.1731 29.7131C60.1828 29.7002 60.1886 29.6847 60.19 29.6684C60.1914 29.652 60.1883 29.6355 60.181 29.6206C60.1736 29.6058 60.1624 29.5932 60.1485 29.5844C60.1347 29.5755 60.1188 29.5706 60.1026 29.5704L50.005 29.5901C49.9927 29.5898 49.9805 29.5925 49.9695 29.5979C49.9585 29.6032 49.949 29.6112 49.9416 29.621L44.2426 37.0265C42.9161 38.748 43.2535 41.3102 44.9938 42.7454C45.5399 43.2009 46.1915 43.5047 46.8824 43.6259C47.5733 43.7471 48.2788 43.6813 48.9274 43.4353Z" fill="#F6BA17"/>
<path d="M58.6593 30.7874C59.3026 30.5387 59.8644 30.1184 60.2866 29.5699C60.7087 29.0214 60.9758 28.3646 61.0602 27.6676C61.3375 25.458 59.8045 23.3566 57.6339 22.975L41.6973 20.169C41.1834 20.0777 40.6593 20.0914 40.156 20.2094C39.6526 20.3275 39.1803 20.5474 38.767 20.8562C38.3536 21.165 38.0076 21.5564 37.7495 22.0073C37.4914 22.4581 37.3264 22.9593 37.2642 23.481C36.987 25.6906 38.5206 27.7916 40.6909 28.1725L56.6281 30.9733C57.314 31.0972 58.0154 31.0329 58.6593 30.7874Z" fill="#0F9D58"/>
</g>
<defs>
<clipPath id="clip0_184_7779">
<rect width="62.6569" height="43.4993" fill="white" transform="translate(0 31.3285) rotate(-30)"/>
</clipPath>
</defs>
</svg>
